:SAMPLES-PER-SECOND 30
:FULLY-SPECIFIED
:DEGREES
303
root  72.6128 39.5626 1.80376 -32.8161 85.6367 -48.8172
RightUpLeg  -9.60907 -3.89084 -0.051631
RightLeg  5.26755 14.2058 0.368275
RightFoot  -3.50857 -0.286331 3.82404
RightToes  2.91037e-010 0 -3.6325e-017
Spine  20.1753 4.03772 7.56372
Spine1  -18.366 5.1719 -6.89763
HEad  -134.112 -23.7328 -129.184
LeftShoulder1  -0.994996 9.56443 -8.22989
LeftArm  -92.689 -50.4647 79.73
LeftForeArm  100.979 -10.0321 0.175163
LeftHand  -166.99 -45.3486 176.505
RightShoulder  -2.57318 -6.5103 70.6462
RightArm  -85.9819 35.871 -40.2539
RightForeArm  28.0326 77.2501 67.1307
RightHand  131.091 47.8873 154.722
LeftUpLeg  -25.8371 4.27089 2.45861
LeftLeg  8.31552 -14.3048 -2.58205
LeftFoot  7.4891 -0.604531 3.37059
LeftToes  -7.53974e-010 3.3384e-011 -1.25048e-011
304
root  72.494 39.4771 1.8885 -34.187 85.9419 -49.3132
RightUpLeg  -10.0614 -3.41348 -0.230007
RightLeg  7.99065 13.7681 0.967101
RightFoot  -4.83436 -0.232032 3.50894
RightToes  2.91037e-010 0 -3.6325e-017
Spine  20.7052 4.26078 7.11748
Spine1  -18.2546 5.36462 -6.29609
HEad  -133.804 -22.2498 -128.839
LeftShoulder1  -0.236165 6.8014 1.44643
LeftArm  -82.0024 -50.0158 51.5507
LeftForeArm  110.093 -19.4328 2.27618
LeftHand  -67.8058 -27.6263 135.082
RightShoulder  -2.19637 -5.8964 71.863
RightArm  -86.9876 33.3282 -39.6267
RightForeArm  -3.92616 74.1272 45.3795
RightHand  133.351 43.3059 158.194
LeftUpLeg  -25.8506 4.30561 2.35907
LeftLeg  9.86251 -14.5897 -2.95527
LeftFoot  6.86072 -0.587164 3.40101
LeftToes  -7.53974e-010 3.3384e-011 -1.25048e-011
305
root  72.3374 39.3917 1.99259 -36.9819 86.2677 -51.7322
RightUpLeg  -11.0526 -1.70698 -0.327508
RightLeg  10.5604 12.232 1.23933
RightFoot  -6.02781 -0.215799 3.77105
RightToes  2.91037e-010 0 -3.6325e-017
Spine  19.963 4.50355 7.56315
Spine1  -16.1841 5.86401 -6.91009
HEad  -122.516 -24.205 -136.111
LeftShoulder1  0.0325089 3.50658 1.65467
LeftArm  -86.2826 -47.293 38.4093
LeftForeArm  119.434 -28.6656 -2.35701
LeftHand  -79.5873 -30.2799 139.344
RightShoulder  -3.13948 -8.08339 66.3271
RightArm  -112.569 40.465 -56.4344
RightForeArm  -5.26256 60.3574 28.923
RightHand  131.572 45.9603 155.59
LeftUpLeg  -26.2636 4.19969 2.36395
LeftLeg  10.9724 -14.8075 -3.18063
LeftFoot  6.27686 -0.487213 2.89801
LeftToes  -7.53974e-010 3.3384e-011 -1.25048e-011
306
root  72.1847 39.3062 2.1215 -43.8558 86.4269 -58.2276
RightUpLeg  -11.9885 1.00959 -0.269658
RightLeg  12.9744 10.0699 1.32187
RightFoot  -6.87457 -0.211647 4.21803
RightToes  2.91037e-010 0 -3.6325e-017
Spine  18.024 4.70794 10.0795
Spine1  -10.5256 6.9198 -9.88868
HEad  -84.1076 -35.0634 -161.72
LeftShoulder1  0.329481 0.976762 -5.77374
LeftArm  -95.7554 -50.4821 38.3498
LeftForeArm  140.825 -34.4731 -4.20356
LeftHand  -62.7422 -20.1613 137.575
RightShoulder  -4.89436 -19.0483 24.2458
RightArm  149.169 63.2761 -117.72
RightForeArm  55.4247 20.4686 -0.345305
RightHand  130.168 69.8407 142.539
LeftUpLeg  -26.7665 4.35552 2.62988
LeftLeg  12.2731 -15.3534 -3.61631
LeftFoot  5.80672 -0.453399 2.77281
LeftToes  -7.53974e-010 3.3384e-011 -1.25048e-011
307
root  72.0058 39.2146 2.30556 -54.8025 86.9827 -68.742
RightUpLeg  -13.1256 4.11483 -0.79759
RightLeg  15.8954 8.07772 1.90135
RightFoot  -7.70224 -0.19317 4.44528
RightToes  2.91037e-010 0 -3.6325e-017
Spine  16.4781 4.49279 8.25261
Spine1  -8.11739 6.37698 -7.6839
HEad  -90.5654 -35.8373 -154.443
LeftShoulder1  0.474491 0.528158 -8.52667
LeftArm  -106.76 -59.6858 31.9143
LeftForeArm  -179.52 -33.5392 -5.62416
LeftHand  0.897319 -4.95634 152.158
RightShoulder  2.66245 -22.7212 -26.2934
RightArm  -144.72 72.9362 -5.73433
RightForeArm  71.4654 21.3117 -0.254592
RightHand  130.968 70.2347 142.747
LeftUpLeg  -27.1646 4.22969 2.66782
LeftLeg  13.2578 -15.9585 -3.99
LeftFoot  5.72086 -0.427162 2.61582
LeftToes  -7.53974e-010 3.3384e-011 -1.25048e-011
308
root  71.791 39.1319 2.49524 -66.6575 87.5679 -79.386
RightUpLeg  -13.6794 6.30857 -1.65302
RightLeg  19.1956 8.25432 3.03778
RightFoot  -8.64591 -0.168265 4.60845
RightToes  2.91037e-010 0 -3.6325e-017
Spine  15.8466 4.04854 5.53157
Spine1  -6.8406 5.35761 -4.81915
HEad  -100.913 -37.0363 -144.418
LeftShoulder1  0.530112 0.4237 -9.815
LeftArm  -87.6186 -58.7307 9.49659
LeftForeArm  151.084 -46.1108 -7.51821
LeftHand  99.7712 -20.3184 -150.65
RightShoulder  1.03591 -15.2892 -18.7089
RightArm  -118.799 65.2915 20.7254
RightForeArm  78.506 31.8284 3.80656
RightHand  125.95 61.5588 144.025
LeftUpLeg  -26.6573 3.82591 2.55574
LeftLeg  14.0217 -16.3048 -4.21919
LeftFoot  5.84397 -0.436266 2.65083
LeftToes  -7.53974e-010 3.3384e-011 -1.25048e-011
309
root  71.5563 39.0118 2.72461 -91.9354 87.6666 -104.07
RightUpLeg  -14.859 7.35596 -2.0193
RightLeg  22.505 10.5994 4.57326
RightFoot  -9.4196 -0.133787 4.22382
RightToes  2.91037e-010 0 -3.6325e-017
Spine  14.9292 3.79863 6.02174
Spine1  -4.86902 5.31763 -5.49371
HEad  -106.113 -34.1509 -137.005
LeftShoulder1  0.636691 0.451622 -13.9994
LeftArm  -71.7431 -56.3417 -5.09776
LeftForeArm  135.936 -56.4839 -11.1952
LeftHand  77.0521 -20.5188 -156.891
RightShoulder  -0.539396 6.63405 -15.0318
RightArm  -85.0568 31.5664 35.0994
RightForeArm  63.9035 54.5712 10.2694
RightHand  119.809 64.2159 137.854
LeftUpLeg  -27.2646 3.73431 2.71875
LeftLeg  15.5405 -17.0782 -4.89654
LeftFoot  5.99689 -0.497352 3.02265
LeftToes  -7.53974e-010 3.3384e-011 -1.25048e-011
310
root  71.3049 38.9119 2.97169 -119.945 87.4877 -131.241
RightUpLeg  -15.2673 9.6736 -2.847
RightLeg  24.7277 12.1951 5.86506
RightFoot  -10.0133 -0.121906 4.56413
RightToes  2.91037e-010 0 -3.6325e-017
Spine  14.8525 3.32415 2.89807
Spine1  -4.89354 3.88152 -1.17843
HEad  -114.174 -32.8917 -130.914
LeftShoulder1  0.636335 0.991568 -18.702
LeftArm  -62.0669 -52.3977 -12.9963
LeftForeArm  30.0183 -57.586 -14.541
LeftHand  -87.8778 14.2623 -172.642
RightShoulder  0.0897908 4.74011 -8.35371
RightArm  -76.7822 33.9405 37.3793
RightForeArm  77.6542 65.3738 17.0857
RightHand  121.04 67.5154 136.556
LeftUpLeg  -27.317 2.6859 2.82099
LeftLeg  16.3146 -17.1988 -5.10189
LeftFoot  6.10252 -0.427446 2.54434
LeftToes  -7.53974e-010 3.3384e-011 -1.25048e-011
311
root  70.9607 38.7791 3.27876 -142.026 86.4618 -152.008
RightUpLeg  -15.1708 11.6807 -3.20312
RightLeg  26.9298 14.393 7.60901
RightFoot  -10.6687 -0.0919612 3.58965
RightToes  2.91037e-010 0 -3.6325e-017
Spine  15.0367 2.745 2.50762
Spine1  -3.17268 3.21529 -0.65446
HEad  -117.875 -31.1031 -128.16
LeftShoulder1  0.680168 1.24037 -23.789
LeftArm  -53.5591 -50.4047 -17.8792
LeftForeArm  -30.4027 -59.1199 -21.5754
LeftHand  -169.525 19.8581 -176.348
RightShoulder  0.557894 3.58167 -0.633745
RightArm  -64.6267 31.6677 43.5787
RightForeArm  102.126 73.9559 24.5343
RightHand  134.815 74.1028 143.978
LeftUpLeg  -27.4184 1.63005 3.23081
LeftLeg  17.8002 -17.4553 -5.66575
LeftFoot  6.24198 -0.365499 2.116
LeftToes  -7.53974e-010 3.3384e-011 -1.25048e-011
312
root  70.5475 38.6215 3.61023 -153.025 85.401 -161.612
RightUpLeg  -14.9072 14.4356 -3.5419
RightLeg  28.5013 15.9185 8.96279
RightFoot  -11.6916 -0.0709206 3.25524
RightToes  2.91037e-010 0 -3.6325e-017
Spine  15.9078 2.2218 3.45649
Spine1  -2.09344 3.01071 -1.97189
HEad  -90.0232 -20.0416 -123.868
LeftShoulder1  0.666713 1.56791 -28.3287
LeftArm  -47.0162 -54.2066 -13.6217
LeftForeArm  22.8812 -53.6195 -13.3809
LeftHand  -79.5409 20.8937 -159.341
RightShoulder  0.790749 2.3308 5.80371
RightArm  -55.4384 25.4161 46.8196
RightForeArm  148.402 77.5865 45.2588
RightHand  -154.028 83.7816 -157.901
LeftUpLeg  -27.5778 1.04529 3.54572
LeftLeg  19.3739 -17.9752 -6.5325
LeftFoot  6.51343 -0.342449 1.93218
LeftToes  -7.53974e-010 3.3384e-011 -1.25048e-011
